<?xml version="1.0" standalone="no"?>
<!DOCTYPE svg PUBLIC "-//W3C//DTD SVG 20010904//EN"
 "http://www.w3.org/TR/2001/REC-SVG-20010904/DTD/svg10.dtd">
<svg version="1.0" xmlns="http://www.w3.org/2000/svg"
 width="1000.000000pt" height="1000.000000pt" viewBox="0 0 1000.000000 1000.000000"
 preserveAspectRatio="xMidYMid meet">
<metadata>
Created by potrace 1.14, written by Peter Selinger 2001-2017
</metadata>
<g transform="translate(0.000000,1000.000000) scale(0.100000,-0.100000)"
fill="#000000" stroke="none">
<path d="M3184 9980 c-353 -125 -669 -403 -824 -725 -55 -114 -66 -145 -51
-145 6 0 27 32 46 71 46 91 129 209 235 334 147 175 371 335 613 439 33 15 56
30 52 36 -8 13 -9 12 -71 -10z"/>
<path d="M3425 9835 c-247 -108 -467 -245 -619 -385 -174 -161 -425 -527 -414
-603 3 -17 18 3 62 78 132 222 334 458 506 590 124 95 324 217 450 275 86 40
120 60 120 70 0 16 -21 11 -105 -25z"/>
<path d="M3895 9747 c-11 -8 -51 -23 -90 -35 -38 -12 -113 -42 -165 -68 -52
-26 -97 -48 -100 -49 -25 -4 -291 -174 -384 -245 -261 -197 -577 -596 -672
-849 -24 -65 -31 -103 -15 -85 5 5 29 48 54 96 55 103 82 150 105 186 24 39
135 196 141 202 3 3 31 34 61 70 87 104 90 107 205 212 231 211 515 395 760
493 39 15 93 40 120 56 42 24 46 29 25 29 -14 0 -34 -6 -45 -13z"/>
<path d="M5190 9209 c-198 -17 -247 -22 -300 -33 -14 -3 -65 -12 -115 -20
-109 -19 -363 -96 -450 -136 -11 -5 -54 -23 -95 -40 -209 -86 -513 -273 -715
-439 -93 -76 -337 -316 -417 -411 -179 -213 -335 -478 -452 -771 -25 -64 -46
-123 -46 -131 0 -8 -3 -18 -7 -22 -4 -3 -8 -12 -9 -19 -2 -7 -16 -61 -33 -122
-34 -130 -63 -268 -77 -375 -3 -25 -7 -56 -10 -70 -25 -153 -25 -588 1 -755 3
-16 7 -43 9 -60 10 -69 27 -169 30 -174 2 -3 7 -22 10 -41 7 -45 75 -282 85
-295 4 -5 20 -46 36 -90 57 -164 233 -481 368 -661 109 -147 237 -296 361
-419 146 -145 161 -158 307 -256 354 -239 587 -346 966 -444 158 -40 209 -49
217 -36 7 11 21 82 30 151 4 25 11 77 17 115 10 73 15 110 24 185 3 25 12 90
19 145 7 55 13 125 12 155 l-1 54 -40 8 c-47 10 -196 57 -315 100 -543 196
-1038 721 -1239 1315 -38 112 -73 259 -88 375 -10 71 -10 437 0 513 21 168 62
356 114 528 3 9 9 17 13 17 5 0 11 15 15 33 9 41 81 186 147 296 191 315 502
599 871 795 201 107 473 196 652 214 139 14 616 5 644 -12 3 -2 29 -7 56 -10
54 -7 165 -38 310 -88 417 -141 789 -434 1050 -827 99 -150 172 -289 229 -437
33 -86 79 -237 90 -299 38 -202 44 -326 34 -674 -2 -66 0 -85 12 -92 8 -4 150
-31 315 -59 165 -28 311 -53 325 -55 84 -15 118 -15 133 0 25 24 31 111 32
405 0 302 -10 485 -31 570 -3 14 -8 36 -10 50 -11 62 -66 263 -92 340 -94 273
-233 540 -404 777 -386 536 -867 892 -1463 1083 -55 18 -125 40 -155 50 -53
17 -175 44 -250 54 -49 7 -185 24 -245 31 -27 3 -70 8 -95 11 -65 9 -293 10
-380 3z"/>
<path d="M5152 6583 c-6 -16 -13 -41 -16 -58 -11 -61 -14 -80 -31 -220 -3 -22
-14 -114 -25 -205 -32 -254 -34 -284 -19 -296 8 -6 39 -16 69 -23 54 -13 216
-64 255 -80 11 -5 66 -28 123 -51 57 -24 118 -52 135 -64 18 -12 52 -32 77
-45 85 -44 280 -201 404 -327 254 -255 450 -591 555 -949 51 -175 56 -224 56
-540 0 -282 -4 -327 -40 -475 -58 -236 -154 -473 -264 -650 -327 -525 -951
-926 -1541 -989 -128 -13 -480 -5 -580 14 -14 2 -36 7 -50 9 -678 117 -1223
528 -1541 1166 -97 195 -145 334 -183 535 -25 134 -26 142 -26 417 0 266 0
268 -22 282 -13 8 -36 17 -53 20 -16 3 -124 21 -240 41 -310 54 -315 54 -380
61 -33 4 -62 8 -65 10 -14 7 -32 -16 -40 -52 -31 -138 -34 -638 -5 -816 2 -13
6 -41 9 -63 96 -664 522 -1385 1086 -1837 117 -93 364 -256 474 -312 119 -61
322 -139 476 -184 156 -46 375 -93 495 -108 28 -4 53 -8 56 -10 10 -6 239 -18
344 -18 166 1 413 22 535 48 8 1 33 6 55 11 72 14 248 63 350 98 590 202 1160
644 1510 1172 80 120 212 355 222 395 3 14 16 49 29 77 89 198 162 493 208
838 24 174 24 561 2 695 -3 14 -12 71 -20 127 -49 313 -200 711 -372 980 -19
30 -34 56 -34 59 0 5 -6 14 -101 149 -213 303 -492 579 -779 770 -100 67 -377
211 -470 246 -30 11 -68 26 -85 34 -70 31 -471 145 -513 145 -12 0 -24 -11
-30 -27z"/>
<path d="M7244 1389 c-169 -234 -388 -461 -556 -575 -24 -16 -45 -31 -48 -34
-8 -9 -190 -122 -245 -153 -173 -96 -454 -208 -598 -239 -27 -5 -74 -21 -105
-34 -56 -23 -56 -23 -21 -24 19 0 40 5 46 11 6 6 34 13 63 15 173 14 613 197
823 341 232 159 477 396 622 603 40 58 90 158 82 166 -2 3 -31 -32 -63 -77z"/>
<path d="M7284 1003 c-209 -268 -451 -478 -704 -610 -106 -55 -276 -126 -405
-168 -127 -42 -132 -45 -113 -56 33 -18 353 92 547 188 194 96 271 154 461
343 118 118 186 199 234 282 33 57 19 72 -20 21z"/>
<path d="M7332 720 c-128 -181 -363 -404 -527 -498 -127 -73 -324 -156 -433
-182 -49 -11 -71 -25 -59 -37 13 -12 256 53 347 94 281 124 530 336 671 573
47 80 48 117 1 50z"/>
</g>
</svg>
